# ProBuilder 5.0.6
# https://unity3d.com/unity/features/worldbuilding/probuilder
# 2/14/2023 11:15:18 AM

mtllib ./Hex.mtl
o Hex

g Cylinder
v -1.15 -0.5 0
v -1.15 0 0
v -0.5749999 -0.5 0.9959292
v -0.5749999 0 0.9959292
v 0.575 -0.5 0.9959292
v 0.575 0 0.9959292
v 1.15 -0.5 -1.005362E-07
v 1.15 0 -1.005362E-07
v 0.5749999 -0.5 -0.9959292
v 0.5749999 0 -0.9959292
v -0.5749999 -0.5 -0.9959292
v -0.5749999 0 -0.9959292
v 0 -0.5 0
v 0 0 0

vt -0.575 -0.25
vt -0.575 0.25
vt 0.575 -0.25
vt 0.575 0.25
vt -0.575 -0.25
vt -0.575 0.25
vt 0.5750001 -0.25
vt 0.5750001 0.25
vt -1.15 0
vt 0 0
vt -0.5749999 0.9959292
vt 1.15 0
vt 0.5749999 0.9959292
vt 0.575 0.9959292
vt -0.575 0.9959292
vt 0.5749999 -0.9959292
vt -0.5749999 -0.9959292

vn -0.8660254 0 0.5000001
vn 5.183013E-08 0 1
vn 0.8660254 0 0.4999999
vn 0.8660253 0 -0.5000001
vn 0 0 -1
vn -0.8660254 0 -0.5000001
vn 0 -1 0
vn 0 1 0

usemtl ProBuilderDefault
f 1/9/7 13/10/7 3/11/7
f 3/11/7 13/10/7 5/14/7
f 5/14/7 13/10/7 7/12/7
f 7/12/7 13/10/7 9/16/7
f 9/16/7 13/10/7 11/17/7
f 11/17/7 13/10/7 1/9/7
f 4/13/8 14/10/8 2/12/8
f 6/15/8 14/10/8 4/13/8
f 8/9/8 14/10/8 6/15/8
f 10/17/8 14/10/8 8/9/8
f 12/16/8 14/10/8 10/17/8
f 2/12/8 14/10/8 12/16/8
f 4/4/1 2/2/1 1/1/1
f 1/1/1 3/3/1 4/4/1
f 6/4/2 4/6/2 3/5/2
f 3/5/2 5/3/2 6/4/2
f 8/4/3 6/2/3 5/1/3
f 5/1/3 7/3/3 8/4/3
f 10/4/4 8/2/4 7/1/4
f 7/1/4 9/3/4 10/4/4
f 12/4/5 10/6/5 9/5/5
f 9/5/5 11/3/5 12/4/5
f 2/8/6 12/6/6 11/5/6
f 11/5/6 1/7/6 2/8/6

